PathFileType	4	(X/Y/Z)	path1_22_0-584.trc
DataRate	CameraRate	NumFrames	NumMarkers	Units	OrigDataRate	OrigDataStartFrame	OrigNumFrames
30	30	7	22	m	30	292	584
Frame#	Time	Hip			RHip			RKnee			RAnkle			RBigToe			RSmallToe			RHeel			LHip			LKnee			LAnkle			LBigToe			LSmallToe			LHeel			Neck			Head			Nose			RShoulder			RElbow			RWrist			LShoulder			LElbow			LWrist		
		X1	Y1	Z1	X2	Y2	Z2	X3	Y3	Z3	X4	Y4	Z4	X5	Y5	Z5	X6	Y6	Z6	X7	Y7	Z7	X8	Y8	Z8	X9	Y9	Z9	X10	Y10	Z10	X11	Y11	Z11	X12	Y12	Z12	X13	Y13	Z13	X14	Y14	Z14	X15	Y15	Z15	X16	Y16	Z16	X17	Y17	Z17	X18	Y18	Z18	X19	Y19	Z19	X20	Y20	Z20	X21	Y21	Z21	X22	Y22	Z22
293	9.766666666666667	2.5157164064559527	0.832571145641805	0.5948427723037059	2.511534042990442	0.7928938528137635	0.5163637714193814	2.4827292183043776	0.46092062868682643	0.5078365853924459	2.5489706850459135	0.10137025015279708	0.5375821437448397	2.354990529325336	0.011611674575845098	0.5233926661585909	2.3896693998544323	0.02111436542026907	0.46351778863484505	2.5888832826240793	0.03912363907819713	0.5281114246709043	2.5129475082364467	0.7887224307174232	0.6725167795669522	2.5187934204350304	0.4303782541054257	0.6413585999039835	2.556363805948767	0.09043342403096691	0.6381217746090052	2.3776831903939915	0.018125798894775686	0.653540513338844	2.412559667868279	0.01740771906708778	0.7043838009302489	2.5980811408647813	0.03513450771977607	0.649208616269924	2.4689299794600523	1.472991259554784	0.6100292173143651	2.43653531276268	1.7155903032906241	0.5457344575450058	2.330674288314538	1.607472587763039	0.5847728608006838	2.5192454281457737	1.3708927387349872	0.4345920483950149	2.536883672379378	1.0781451379621956	0.41288589558363475	2.491622872861803	0.843031073382464	0.3830713413427493	2.5000348902146206	1.3528462369021441	0.7396673907735491	2.51574071383941	1.0703656947870075	0.7982320786242593	2.5091056396880496	0.8360808015262607	0.8017636971099258
294	9.8	2.5153596972560197	0.8326372882725872	0.595159704457598	2.511611677439115	0.7930929528933184	0.5170055378037185	2.4825506063608276	0.46155685988144507	0.5080499344829376	2.548339979627991	0.10186855226794711	0.5376769706386126	2.3550482632773364	0.011900340370093526	0.523383264793787	2.390113929114968	0.02128891319523853	0.4634322755979865	2.5887594654262642	0.03939070064510653	0.5297423811208535	2.5126183897962697	0.7889703769417575	0.6730404062100455	2.518415509154574	0.4308219444341364	0.6420297337349586	2.5563630773260577	0.09112092518445093	0.6396418933414278	2.3776578176241476	0.017049023958548078	0.653163035162845	2.4118764194106648	0.014618761526921804	0.7029141241487717	2.5969080622974765	0.03535935429487693	0.6490687565420544	2.4687810863393413	1.4728713979019803	0.6105528331310384	2.4358543686032736	1.7156999937504727	0.5453451788891028	2.330434601620952	1.6071565327220378	0.5848532347436548	2.519150765332169	1.3707566521514563	0.4351227796440191	2.5368182024247723	1.0780621224242948	0.4130690227535461	2.4914423078454524	0.8430862754559194	0.3832739508933228	2.498131166899648	1.352796477609169	0.7417603295682075	2.515648526646006	1.0704994637994667	0.7986357496144426	2.509331708037053	0.8367058280902541	0.8020513652821551
295	9.833333333333334	2.5150152279849936	0.8326618862497965	0.5954747164852608	2.5118422024236793	0.7934063983902389	0.5177286587939098	2.482464491686916	0.46221644279982266	0.5082990582771914	2.5476329350181617	0.10239074217568318	0.5378510851535864	2.354982037575018	0.012677187086904846	0.5233671884883101	2.390344846617367	0.021688903370137964	0.4633810485654708	2.589163480112449	0.0395151318010737	0.5319382734124632	2.5122806786547143	0.789376707874343	0.6736576384283796	2.5179116351456408	0.43122169108922137	0.6434150972644337	2.556199051123647	0.09202227169599313	0.6414871317983076	2.3779639615033252	0.015281040617434231	0.6523719999227807	2.4111573832354423	0.011984259404856689	0.7017782831465903	2.5944771833291487	0.03606194693561046	0.6482817597203206	2.4687240710842935	1.4726717071422193	0.6110875076292985	2.435254251245233	1.715990405154891	0.5450597889981493	2.3302976392145034	1.6068791390636163	0.584758167374094	2.519191043216219	1.3705192693258197	0.4355537962313508	2.536783146008563	1.0780320409385182	0.41327513153827644	2.4912717197210332	0.8431911084397341	0.38339321123118125	2.4953120342449364	1.3525816155468962	0.7449321970158848	2.515581290145797	1.0706507049294887	0.7990247303911375	2.509736379034962	0.8374079044555816	0.8024660934208167
296	9.866666666666667	2.5146768182947143	0.8326561958282802	0.5957042404203682	2.5121313765218094	0.7937067376434386	0.5183724355282506	2.482495173157301	0.4627062291793788	0.5085006371126632	2.5469752328159148	0.10270476607711715	0.5380661616515832	2.354782446741072	0.013868138025604597	0.5232876720744903	2.3902903222764307	0.022210842347808096	0.46327917850147404	2.5898842483408147	0.039428499212536106	0.5340356576374125	2.51195093961744	0.7898147104806291	0.6742175283297718	2.5173812844897143	0.4314827759422768	0.6452433908797294	2.5558827829543502	0.09282493024372641	0.6428748622807493	2.378741746222981	0.01301009110315009	0.6511642234679343	2.4105883933050563	0.010425205462636061	0.7014762934859592	2.5919227343799385	0.03691132956449106	0.6474857878967302	2.468643704381428	1.4724614590396878	0.6114622328654928	2.434766286425509	1.716363431465292	0.5447936088512662	2.330117711708045	1.6066875966116916	0.5845550389428202	2.5192140060178354	1.3702113237614255	0.4357842244748086	2.536693188777663	1.0780031442221372	0.4134617035964265	2.4910939232319005	0.8432879024067721	0.38340528565831006	2.4919987397376544	1.3521964867530643	0.7487719525559687	2.515553077690788	1.0707889836446043	0.7992727010878786	2.5102267351441596	0.8380468062537191	0.8029040681242525
297	9.9	2.5143172427299554	0.8326336883618841	0.5957987145656888	2.5123437430723734	0.7938781401146772	0.5188205085173916	2.482608740203129	0.46294156049898927	0.5086016427442163	2.5465045324979707	0.10266591287452385	0.5383646820091579	2.354465062849121	0.015371837925288064	0.5230810052378345	2.39000960234282	0.022683149824594954	0.46306999670675264	2.590676984634644	0.03914390098631675	0.5356522811602081	2.511608786297116	0.790151720543007	0.6745678450790088	2.516874246325591	0.4315886152064399	0.6472375200574066	2.5555324451076946	0.09341259353222539	0.6435914226729831	2.3799617329029576	0.010708797914388887	0.6496603418831858	2.4101458620123974	0.010407348265800864	0.7020509260069484	2.5902747122392213	0.03757976951954944	0.6472311466168092	2.468430330295475	1.472305925023083	0.6115777204694007	2.4343648207140784	1.716648720678202	0.5445639068554744	2.3297529456308963	1.6065907048731862	0.5842798692111906	2.5190774453224365	1.3698838603343486	0.43579614646887116	2.5364791926462984	1.077922979487758	0.41351370846120744	2.4908912496196294	0.8433297210636985	0.38334941790018673	2.4889910073338646	1.351703142267463	0.7524003077759785	2.51559922493648	1.0708679236907708	0.7993157960131507	2.510658252307939	0.8385266730058915	0.8032600848133529
298	9.933333333333334	2.5139204826065877	0.8326147127690622	0.5958001990843435	2.51240190704007	0.7938786432878155	0.5190637397978362	2.482741389414214	0.4629758342910071	0.5086155800056206	2.546302658151464	0.10228909695021006	0.5388280186357259	2.354105318199136	0.01713562176231754	0.5227455472466758	2.3896681291484403	0.022949115038708705	0.4627572235243046	2.591341703045243	0.03876678248091278	0.5367189191671258	2.5112643383788	0.7903399572577369	0.674665752426162	2.5163699399338357	0.43164084560076055	0.6489020562492405	2.5553683426295866	0.09409656746592243	0.6444818154710494	2.3814185727793844	0.008958513516860065	0.6481360787573883	2.4094920416183347	0.011699289748492294	0.7029860468010996	2.5896409651206387	0.038028987421664114	0.6474441651130375	2.468062589969507	1.472242606231378	0.6114502720473427	2.433978772013556	1.7166999970211265	0.5446651010284758	2.3291813937870556	1.6065517841613604	0.5839642685049822	2.5187093018723976	1.3695705414294719	0.43562396317946345	2.5361203168412665	1.0777509412750452	0.4133317654927117	2.490661940365517	0.8432991432731405	0.3832817204073223	2.486979430358287	1.351208218758827	0.7550522099436972	2.5157190959374294	1.070850574713099	0.7991809417852065	2.510924249728112	0.8388253089454195	0.8034781943364111
299	9.966666666666669	2.513534899909189	0.8326174490728143	0.5958202377654425	2.5123455738837617	0.7937493325104115	0.5191894014784787	2.4828462218284795	0.4629296049481733	0.5085980191340271	2.5463945659395644	0.10169304665093566	0.5395149068853382	2.3538215631247064	0.019101266713056658	0.5223476560345375	2.3894491045456876	0.02293367255923462	0.4623995015117345	2.591760507830167	0.038451518756840886	0.5372701221343171	2.510971989193086	0.7904476565320729	0.6746162121786555	2.5158261699455147	0.4317917553184899	0.6495401052777999	2.5555850572392753	0.09533768369324208	0.6467100692365306	2.382839330514604	0.008032059289864887	0.6468798895909114	2.4081401696770484	0.013823663324773057	0.703635222617798	2.589274658553167	0.03846199814817426	0.6475324618866373	2.467611362304213	1.472268453544802	0.6111874007600853	2.43345376444396	1.7164110697896342	0.5456121779343817	2.328506883537412	1.6065075738262589	0.5837272342021975	2.518148392231514	1.3692762880098248	0.43533182129035725	2.535646684454679	1.0774647286731998	0.412920286972764	2.4904220496536045	0.8431713673349567	0.3832375412450259	2.486131832397337	1.3507943233108308	0.7565423746638269	2.515857360584305	1.0707248866017418	0.7989459859066026	2.511014121362146	0.8389649649904151	0.8035613933497812
